<mxfile host="app.diagrams.net" modified="2022-04-03T10:30:17.018Z" agent="5.0 (Windows NT 10.0; Win64; x64) AppleWebKit/537.36 (KHTML, like Gecko) Chrome/99.0.4844.84 Safari/537.36" etag="fwgxs5hPERCSXBYO0IjK" version="16.5.6" type="github">
  <diagram id="C5RBs43oDa-KdzZeNtuy" name="Page-1">
    <mxGraphModel dx="1102" dy="494" grid="1" gridSize="10" guides="1" tooltips="1" connect="1" arrows="1" fold="1" page="1" pageScale="1" pageWidth="827" pageHeight="1169" math="0" shadow="0">
      <root>
        <mxCell id="WIyWlLk6GJQsqaUBKTNV-0" />
        <mxCell id="pp7o7-17MDsQh1UPEcIq-14" parent="WIyWlLk6GJQsqaUBKTNV-0" />
        <mxCell id="pp7o7-17MDsQh1UPEcIq-347" value="" style="edgeStyle=orthogonalEdgeStyle;orthogonalLoop=1;jettySize=auto;html=1;fontSize=24;" edge="1" parent="pp7o7-17MDsQh1UPEcIq-14" source="pp7o7-17MDsQh1UPEcIq-341" target="pp7o7-17MDsQh1UPEcIq-346">
          <mxGeometry relative="1" as="geometry">
            <Array as="points">
              <mxPoint x="120" y="415" />
              <mxPoint x="120" y="140" />
            </Array>
          </mxGeometry>
        </mxCell>
        <mxCell id="pp7o7-17MDsQh1UPEcIq-349" value="" style="edgeStyle=orthogonalEdgeStyle;orthogonalLoop=1;jettySize=auto;html=1;fontSize=24;" edge="1" parent="pp7o7-17MDsQh1UPEcIq-14" source="pp7o7-17MDsQh1UPEcIq-341" target="pp7o7-17MDsQh1UPEcIq-348">
          <mxGeometry relative="1" as="geometry">
            <Array as="points">
              <mxPoint x="130" y="415" />
              <mxPoint x="130" y="180" />
            </Array>
          </mxGeometry>
        </mxCell>
        <mxCell id="pp7o7-17MDsQh1UPEcIq-352" value="" style="edgeStyle=orthogonalEdgeStyle;orthogonalLoop=1;jettySize=auto;html=1;fontSize=24;" edge="1" parent="pp7o7-17MDsQh1UPEcIq-14" source="pp7o7-17MDsQh1UPEcIq-341" target="pp7o7-17MDsQh1UPEcIq-351">
          <mxGeometry relative="1" as="geometry">
            <Array as="points">
              <mxPoint x="140" y="415" />
              <mxPoint x="140" y="230" />
            </Array>
          </mxGeometry>
        </mxCell>
        <mxCell id="pp7o7-17MDsQh1UPEcIq-354" value="" style="edgeStyle=orthogonalEdgeStyle;orthogonalLoop=1;jettySize=auto;html=1;fontSize=24;" edge="1" parent="pp7o7-17MDsQh1UPEcIq-14" source="pp7o7-17MDsQh1UPEcIq-341" target="pp7o7-17MDsQh1UPEcIq-353">
          <mxGeometry relative="1" as="geometry">
            <Array as="points">
              <mxPoint x="161" y="415" />
              <mxPoint x="161" y="370" />
            </Array>
          </mxGeometry>
        </mxCell>
        <mxCell id="pp7o7-17MDsQh1UPEcIq-376" value="" style="edgeStyle=orthogonalEdgeStyle;orthogonalLoop=1;jettySize=auto;html=1;fontFamily=Verdana;fontSize=24;" edge="1" parent="pp7o7-17MDsQh1UPEcIq-14" source="pp7o7-17MDsQh1UPEcIq-341" target="pp7o7-17MDsQh1UPEcIq-375">
          <mxGeometry relative="1" as="geometry">
            <Array as="points">
              <mxPoint x="151" y="415" />
              <mxPoint x="151" y="300" />
            </Array>
          </mxGeometry>
        </mxCell>
        <mxCell id="pp7o7-17MDsQh1UPEcIq-384" value="" style="edgeStyle=orthogonalEdgeStyle;orthogonalLoop=1;jettySize=auto;html=1;fontFamily=Verdana;fontSize=24;" edge="1" parent="pp7o7-17MDsQh1UPEcIq-14" source="pp7o7-17MDsQh1UPEcIq-341" target="pp7o7-17MDsQh1UPEcIq-383">
          <mxGeometry relative="1" as="geometry" />
        </mxCell>
        <mxCell id="pp7o7-17MDsQh1UPEcIq-388" value="" style="edgeStyle=orthogonalEdgeStyle;orthogonalLoop=1;jettySize=auto;html=1;fontFamily=Verdana;fontSize=12;" edge="1" parent="pp7o7-17MDsQh1UPEcIq-14" source="pp7o7-17MDsQh1UPEcIq-341" target="pp7o7-17MDsQh1UPEcIq-387">
          <mxGeometry relative="1" as="geometry">
            <Array as="points">
              <mxPoint x="120" y="415" />
              <mxPoint x="120" y="555" />
            </Array>
          </mxGeometry>
        </mxCell>
        <mxCell id="pp7o7-17MDsQh1UPEcIq-341" value="User" style="shape=umlActor;verticalLabelPosition=bottom;verticalAlign=top;html=1;outlineConnect=0;" vertex="1" parent="pp7o7-17MDsQh1UPEcIq-14">
          <mxGeometry x="30" y="360" width="60" height="110" as="geometry" />
        </mxCell>
        <mxCell id="pp7o7-17MDsQh1UPEcIq-405" value="" style="edgeStyle=none;orthogonalLoop=1;jettySize=auto;html=1;fontFamily=Verdana;fontSize=12;" edge="1" parent="pp7o7-17MDsQh1UPEcIq-14" source="pp7o7-17MDsQh1UPEcIq-342" target="pp7o7-17MDsQh1UPEcIq-404">
          <mxGeometry relative="1" as="geometry" />
        </mxCell>
        <mxCell id="pp7o7-17MDsQh1UPEcIq-342" value="&lt;font style=&quot;font-size: 24px&quot;&gt;USE CASE ABSEN &amp;amp; LAPORAN KEGIATAN&lt;/font&gt;" style="text;html=1;strokeColor=none;fillColor=none;align=center;verticalAlign=middle;whiteSpace=wrap;rounded=0;" vertex="1" parent="pp7o7-17MDsQh1UPEcIq-14">
          <mxGeometry x="20" y="50" width="520" height="30" as="geometry" />
        </mxCell>
        <mxCell id="pp7o7-17MDsQh1UPEcIq-346" value="&lt;h4&gt;&lt;font face=&quot;Verdana&quot;&gt;Log in Mobile&amp;nbsp;&lt;/font&gt;&lt;/h4&gt;" style="ellipse;whiteSpace=wrap;html=1;verticalAlign=top;fillColor=rgb(255, 255, 255);strokeColor=rgb(0, 0, 0);fontColor=rgb(0, 0, 0);align=center;" vertex="1" parent="pp7o7-17MDsQh1UPEcIq-14">
          <mxGeometry x="240" y="110" width="120" height="60" as="geometry" />
        </mxCell>
        <mxCell id="pp7o7-17MDsQh1UPEcIq-348" value="&lt;h4&gt;Absen masuk&amp;nbsp;&lt;/h4&gt;" style="ellipse;whiteSpace=wrap;html=1;verticalAlign=top;fillColor=rgb(255, 255, 255);strokeColor=rgb(0, 0, 0);fontColor=rgb(0, 0, 0);" vertex="1" parent="pp7o7-17MDsQh1UPEcIq-14">
          <mxGeometry x="380" y="150" width="120" height="60" as="geometry" />
        </mxCell>
        <mxCell id="pp7o7-17MDsQh1UPEcIq-351" value="&lt;h4&gt;Pengajuan cuti&lt;/h4&gt;" style="ellipse;whiteSpace=wrap;html=1;verticalAlign=top;fillColor=rgb(255, 255, 255);strokeColor=rgb(0, 0, 0);fontColor=rgb(0, 0, 0);" vertex="1" parent="pp7o7-17MDsQh1UPEcIq-14">
          <mxGeometry x="250" y="200" width="120" height="60" as="geometry" />
        </mxCell>
        <mxCell id="pp7o7-17MDsQh1UPEcIq-353" value="&lt;h4&gt;Riwayat persensi&amp;nbsp;&lt;/h4&gt;" style="ellipse;whiteSpace=wrap;html=1;verticalAlign=top;fillColor=rgb(255, 255, 255);strokeColor=rgb(0, 0, 0);fontColor=rgb(0, 0, 0);" vertex="1" parent="pp7o7-17MDsQh1UPEcIq-14">
          <mxGeometry x="250" y="340" width="120" height="60" as="geometry" />
        </mxCell>
        <mxCell id="pp7o7-17MDsQh1UPEcIq-390" style="edgeStyle=orthogonalEdgeStyle;orthogonalLoop=1;jettySize=auto;html=1;entryX=1;entryY=1;entryDx=0;entryDy=0;entryPerimeter=0;fontFamily=Verdana;fontSize=12;" edge="1" parent="pp7o7-17MDsQh1UPEcIq-14" source="pp7o7-17MDsQh1UPEcIq-355" target="pp7o7-17MDsQh1UPEcIq-341">
          <mxGeometry relative="1" as="geometry">
            <Array as="points">
              <mxPoint x="257" y="480" />
              <mxPoint x="257" y="470" />
            </Array>
          </mxGeometry>
        </mxCell>
        <mxCell id="pp7o7-17MDsQh1UPEcIq-355" value="&lt;h4&gt;Absen keluar&amp;nbsp;&lt;/h4&gt;" style="ellipse;whiteSpace=wrap;html=1;verticalAlign=top;fillColor=rgb(255, 255, 255);strokeColor=rgb(0, 0, 0);fontColor=rgb(0, 0, 0);" vertex="1" parent="pp7o7-17MDsQh1UPEcIq-14">
          <mxGeometry x="420" y="450" width="120" height="60" as="geometry" />
        </mxCell>
        <mxCell id="pp7o7-17MDsQh1UPEcIq-357" value="&lt;h4&gt;Statistik Persensi&lt;/h4&gt;" style="ellipse;whiteSpace=wrap;html=1;verticalAlign=top;fillColor=rgb(255, 255, 255);strokeColor=rgb(0, 0, 0);fontColor=rgb(0, 0, 0);" vertex="1" parent="pp7o7-17MDsQh1UPEcIq-14">
          <mxGeometry x="370" y="610" width="120" height="60" as="geometry" />
        </mxCell>
        <mxCell id="pp7o7-17MDsQh1UPEcIq-360" style="edgeStyle=orthogonalEdgeStyle;orthogonalLoop=1;jettySize=auto;html=1;entryX=1;entryY=0.5;entryDx=0;entryDy=0;fontFamily=Verdana;fontSize=24;" edge="1" parent="pp7o7-17MDsQh1UPEcIq-14" source="pp7o7-17MDsQh1UPEcIq-359" target="pp7o7-17MDsQh1UPEcIq-357">
          <mxGeometry relative="1" as="geometry" />
        </mxCell>
        <mxCell id="pp7o7-17MDsQh1UPEcIq-365" value="" style="edgeStyle=orthogonalEdgeStyle;orthogonalLoop=1;jettySize=auto;html=1;fontFamily=Verdana;fontSize=24;" edge="1" parent="pp7o7-17MDsQh1UPEcIq-14" source="pp7o7-17MDsQh1UPEcIq-359" target="pp7o7-17MDsQh1UPEcIq-364">
          <mxGeometry relative="1" as="geometry">
            <Array as="points">
              <mxPoint x="640" y="415" />
              <mxPoint x="640" y="780" />
            </Array>
          </mxGeometry>
        </mxCell>
        <mxCell id="pp7o7-17MDsQh1UPEcIq-367" value="" style="edgeStyle=orthogonalEdgeStyle;orthogonalLoop=1;jettySize=auto;html=1;fontFamily=Verdana;fontSize=24;" edge="1" parent="pp7o7-17MDsQh1UPEcIq-14" source="pp7o7-17MDsQh1UPEcIq-359" target="pp7o7-17MDsQh1UPEcIq-366">
          <mxGeometry relative="1" as="geometry">
            <Array as="points">
              <mxPoint x="680" y="415" />
              <mxPoint x="680" y="710" />
            </Array>
          </mxGeometry>
        </mxCell>
        <mxCell id="pp7o7-17MDsQh1UPEcIq-392" value="" style="edgeStyle=orthogonalEdgeStyle;orthogonalLoop=1;jettySize=auto;html=1;fontFamily=Verdana;fontSize=12;" edge="1" parent="pp7o7-17MDsQh1UPEcIq-14" source="pp7o7-17MDsQh1UPEcIq-359" target="pp7o7-17MDsQh1UPEcIq-391">
          <mxGeometry relative="1" as="geometry">
            <Array as="points">
              <mxPoint x="750" y="570" />
            </Array>
          </mxGeometry>
        </mxCell>
        <mxCell id="pp7o7-17MDsQh1UPEcIq-394" value="" style="edgeStyle=orthogonalEdgeStyle;orthogonalLoop=1;jettySize=auto;html=1;fontFamily=Verdana;fontSize=12;" edge="1" parent="pp7o7-17MDsQh1UPEcIq-14" source="pp7o7-17MDsQh1UPEcIq-359" target="pp7o7-17MDsQh1UPEcIq-393">
          <mxGeometry relative="1" as="geometry">
            <Array as="points">
              <mxPoint x="700" y="415" />
              <mxPoint x="700" y="850" />
            </Array>
          </mxGeometry>
        </mxCell>
        <mxCell id="pp7o7-17MDsQh1UPEcIq-359" value="Admin" style="shape=umlActor;verticalLabelPosition=bottom;verticalAlign=top;html=1;outlineConnect=0;" vertex="1" parent="pp7o7-17MDsQh1UPEcIq-14">
          <mxGeometry x="720" y="360" width="60" height="110" as="geometry" />
        </mxCell>
        <mxCell id="pp7o7-17MDsQh1UPEcIq-364" value="&lt;h4&gt;Data Pegawai&lt;/h4&gt;" style="ellipse;whiteSpace=wrap;html=1;verticalAlign=top;fillColor=rgb(255, 255, 255);strokeColor=rgb(0, 0, 0);fontColor=rgb(0, 0, 0);" vertex="1" parent="pp7o7-17MDsQh1UPEcIq-14">
          <mxGeometry x="370" y="750" width="120" height="60" as="geometry" />
        </mxCell>
        <mxCell id="pp7o7-17MDsQh1UPEcIq-366" value="&lt;h4&gt;Proses Cuti&lt;/h4&gt;" style="ellipse;whiteSpace=wrap;html=1;verticalAlign=top;fillColor=rgb(255, 255, 255);strokeColor=rgb(0, 0, 0);fontColor=rgb(0, 0, 0);" vertex="1" parent="pp7o7-17MDsQh1UPEcIq-14">
          <mxGeometry x="370" y="680" width="120" height="60" as="geometry" />
        </mxCell>
        <mxCell id="pp7o7-17MDsQh1UPEcIq-375" value="&lt;h4&gt;Buat Kegiatan&amp;nbsp;&lt;/h4&gt;" style="ellipse;whiteSpace=wrap;html=1;verticalAlign=top;fillColor=rgb(255, 255, 255);strokeColor=rgb(0, 0, 0);fontColor=rgb(0, 0, 0);" vertex="1" parent="pp7o7-17MDsQh1UPEcIq-14">
          <mxGeometry x="250" y="270" width="120" height="60" as="geometry" />
        </mxCell>
        <mxCell id="pp7o7-17MDsQh1UPEcIq-383" value="&lt;h4&gt;Laporan Bulanan&lt;/h4&gt;" style="ellipse;whiteSpace=wrap;html=1;verticalAlign=top;fillColor=rgb(255, 255, 255);strokeColor=rgb(0, 0, 0);fontColor=rgb(0, 0, 0);" vertex="1" parent="pp7o7-17MDsQh1UPEcIq-14">
          <mxGeometry x="250" y="410" width="120" height="60" as="geometry" />
        </mxCell>
        <mxCell id="pp7o7-17MDsQh1UPEcIq-385" value="" style="endArrow=classic;html=1;fontFamily=Verdana;fontSize=24;exitX=1;exitY=0.5;exitDx=0;exitDy=0;entryX=0.5;entryY=0;entryDx=0;entryDy=0;" edge="1" parent="pp7o7-17MDsQh1UPEcIq-14" source="pp7o7-17MDsQh1UPEcIq-375" target="pp7o7-17MDsQh1UPEcIq-355">
          <mxGeometry relative="1" as="geometry">
            <mxPoint x="370" y="244.57999999999998" as="sourcePoint" />
            <mxPoint x="480" y="440" as="targetPoint" />
            <Array as="points">
              <mxPoint x="480" y="300" />
            </Array>
          </mxGeometry>
        </mxCell>
        <mxCell id="pp7o7-17MDsQh1UPEcIq-386" value="&lt;font style=&quot;font-size: 12px&quot;&gt;&amp;lt;&amp;lt;extend&amp;gt;&amp;gt;&lt;/font&gt;" style="edgeLabel;resizable=0;html=1;align=center;verticalAlign=middle;fontFamily=Verdana;fontSize=24;" connectable="0" vertex="1" parent="pp7o7-17MDsQh1UPEcIq-385">
          <mxGeometry relative="1" as="geometry">
            <mxPoint x="1" y="15" as="offset" />
          </mxGeometry>
        </mxCell>
        <mxCell id="pp7o7-17MDsQh1UPEcIq-387" value="&lt;h4&gt;Log out&lt;/h4&gt;" style="ellipse;whiteSpace=wrap;html=1;verticalAlign=top;fillColor=rgb(255, 255, 255);strokeColor=rgb(0, 0, 0);fontColor=rgb(0, 0, 0);" vertex="1" parent="pp7o7-17MDsQh1UPEcIq-14">
          <mxGeometry x="200" y="525" width="120" height="60" as="geometry" />
        </mxCell>
        <mxCell id="pp7o7-17MDsQh1UPEcIq-391" value="&lt;h4&gt;Log in website&lt;/h4&gt;" style="ellipse;whiteSpace=wrap;html=1;verticalAlign=top;fillColor=rgb(255, 255, 255);strokeColor=rgb(0, 0, 0);fontColor=rgb(0, 0, 0);" vertex="1" parent="pp7o7-17MDsQh1UPEcIq-14">
          <mxGeometry x="370" y="540" width="120" height="60" as="geometry" />
        </mxCell>
        <mxCell id="pp7o7-17MDsQh1UPEcIq-393" value="&lt;h4&gt;Log out&amp;nbsp;&lt;/h4&gt;" style="ellipse;whiteSpace=wrap;html=1;verticalAlign=top;fillColor=rgb(255, 255, 255);strokeColor=rgb(0, 0, 0);fontColor=rgb(0, 0, 0);" vertex="1" parent="pp7o7-17MDsQh1UPEcIq-14">
          <mxGeometry x="370" y="820" width="120" height="60" as="geometry" />
        </mxCell>
        <mxCell id="pp7o7-17MDsQh1UPEcIq-395" value="" style="endArrow=classic;html=1;fontFamily=Verdana;fontSize=12;exitX=0;exitY=0.3333333333333333;exitDx=0;exitDy=0;exitPerimeter=0;entryX=1;entryY=0.5;entryDx=0;entryDy=0;" edge="1" parent="pp7o7-17MDsQh1UPEcIq-14" source="pp7o7-17MDsQh1UPEcIq-359" target="pp7o7-17MDsQh1UPEcIq-353">
          <mxGeometry width="50" height="50" relative="1" as="geometry">
            <mxPoint x="370" y="400" as="sourcePoint" />
            <mxPoint x="420" y="350" as="targetPoint" />
            <Array as="points">
              <mxPoint x="690" y="370" />
            </Array>
          </mxGeometry>
        </mxCell>
        <mxCell id="pp7o7-17MDsQh1UPEcIq-402" value="" style="endArrow=classic;html=1;fontFamily=Verdana;fontSize=12;entryX=0.5;entryY=0;entryDx=0;entryDy=0;entryPerimeter=0;" edge="1" parent="pp7o7-17MDsQh1UPEcIq-14" target="pp7o7-17MDsQh1UPEcIq-359">
          <mxGeometry relative="1" as="geometry">
            <mxPoint x="370" y="229.66" as="sourcePoint" />
            <mxPoint x="470" y="229.66" as="targetPoint" />
            <Array as="points">
              <mxPoint x="750" y="230" />
            </Array>
          </mxGeometry>
        </mxCell>
        <mxCell id="pp7o7-17MDsQh1UPEcIq-403" value="" style="shape=message;html=1;outlineConnect=0;fontFamily=Verdana;fontSize=12;" vertex="1" parent="pp7o7-17MDsQh1UPEcIq-402">
          <mxGeometry width="20" height="14" relative="1" as="geometry">
            <mxPoint x="-10" y="-7" as="offset" />
          </mxGeometry>
        </mxCell>
        <mxCell id="pp7o7-17MDsQh1UPEcIq-404" value="Tenaga Ahli Jakarta Smart City" style="whiteSpace=wrap;html=1;fontFamily=Verdana;fontSize=12;" vertex="1" parent="pp7o7-17MDsQh1UPEcIq-14">
          <mxGeometry x="560" y="50" width="200" height="25" as="geometry" />
        </mxCell>
      </root>
    </mxGraphModel>
  </diagram>
</mxfile>
